<svg width="56" height="43" viewBox="0 0 56 43" fill="none" xmlns="http://www.w3.org/2000/svg">
<path d="M3.81816 42.0097H12.7272V20.3735L0 10.8281V38.1916C0 40.3011 1.70863 42.0097 3.81816 42.0097Z" fill="#4285F4"/>
<path d="M43.2726 42.0097H52.1816C54.2912 42.0097 55.9998 40.3011 55.9998 38.1916V10.8281L43.2726 20.3735V42.0097Z" fill="#34A853"/>
<path d="M43.2726 3.82845V20.3738L55.9998 10.8284V5.73752C55.9998 1.01892 50.613 -1.67606 46.8362 1.15574L43.2726 3.82845Z" fill="#FBBC04"/>
<path fill-rule="evenodd" clip-rule="evenodd" d="M12.7261 20.3735V3.82812L27.9987 15.2826L43.2714 3.82812V20.3735L27.9987 31.8279L12.7261 20.3735Z" fill="#EA4335"/>
<path d="M0 5.73752V10.8284L12.7272 20.3738V3.82845L9.16358 1.15574C5.38678 -1.67606 0 1.01892 0 5.73752Z" fill="#C5221F"/>
</svg>
