<svg width="48" height="48" viewBox="0 0 48 48" fill="none" xmlns="http://www.w3.org/2000/svg">
<path fill-rule="evenodd" clip-rule="evenodd" d="M46.1071 30.3377C46.1142 30.3616 46.1193 30.3789 46.1223 30.3887L46.1233 30.3877C46.8538 30.3877 48 31.1797 48 33.0911C48 34.9928 47.1625 37.1471 46.9648 37.6251C43.948 44.4373 36.7478 48.2293 28.1711 47.9893C20.1751 47.7656 13.3559 43.7902 10.3717 37.3093C8.56731 37.3112 6.70689 36.5634 5.29272 35.3826C3.80214 34.1384 2.88313 32.5285 2.70381 30.8495C2.56423 29.542 2.73438 28.3257 3.16943 27.2649L1.49341 25.9266C-6.17652 19.8249 17.8124 -5.29822 25.4844 1.00703C25.5231 1.03871 28.0947 3.41567 28.1008 3.42143L29.5261 2.85119C36.2557 0.225597 41.7157 1.49375 41.7228 5.68318C41.7269 7.86141 40.2537 10.4016 37.893 12.7065C38.7488 13.4543 39.4335 14.6227 39.8268 15.959C40.1569 16.9468 40.216 17.9481 40.2455 18.5903C40.273 19.1893 40.3023 20.3253 40.3201 21.0127C40.3287 21.3445 40.3345 21.5717 40.3362 21.5836L41.2837 21.8313C43.0901 22.3084 44.3749 22.9449 45.0036 23.567C45.6322 24.1881 45.944 24.79 46.0571 25.4956C46.163 26.0649 46.1487 27.07 45.352 28.1941L45.7565 29.2165C45.9288 29.737 46.0605 30.1809 46.1071 30.3377ZM10.2362 35.5419C10.5042 35.5477 10.7701 35.5314 11.0309 35.4891C13.8338 35.0389 14.5673 32.1704 14.1058 29.3538C13.5841 26.1733 11.3009 25.0521 9.75122 24.9724C9.32025 24.9513 8.91984 24.9877 8.58973 25.0501C6.38794 25.4681 4.94914 26.9584 4.60884 29.0015C4.74387 28.539 5.00043 28.0322 5.42449 27.5986C5.99874 27.0106 6.89966 26.7098 7.77422 26.8129C8.68546 26.9203 9.44425 27.4316 9.90846 28.2524C10.5251 29.3421 9.97609 30.4871 9.64713 31.1707L9.55085 31.3738C9.34567 31.8278 9.33421 32.2243 9.52104 32.4901C9.66432 32.6942 9.91992 32.8133 10.2214 32.8186C10.3612 32.8207 10.4896 32.7931 10.6031 32.7687L10.6062 32.768C10.7669 32.7342 10.9327 32.6993 11.034 32.8165V32.8144C11.0707 32.8537 11.1292 32.943 11.0604 33.0908C10.9446 33.3406 10.4862 33.683 9.83052 33.6596C9.15655 33.6117 8.40578 33.1567 8.30377 32.0244C8.25333 31.4652 8.48143 30.7848 8.62127 30.4287C8.89177 29.7397 8.64763 29.0189 8.01263 28.633C7.64011 28.4065 7.19424 28.33 6.75868 28.4161C6.32999 28.5012 5.9655 28.7351 5.73167 29.0742C5.54102 29.3515 5.42365 29.6957 5.3588 29.8859L5.35572 29.895L5.31445 30.0108C5.17118 30.367 4.94423 30.4712 4.78949 30.452C4.71728 30.4425 4.61641 30.3978 4.55222 30.2341C4.54597 30.2182 4.54012 30.2012 4.53469 30.1833C4.54015 30.3441 4.55166 30.5074 4.56933 30.6728C4.84748 33.2792 7.64525 35.4767 10.2362 35.5419ZM3.97127 25.8316C4.89944 24.5615 6.41651 23.6428 8.13838 23.327C10.3299 17.7839 13.9897 12.6768 18.8333 9.1622C22.4278 6.33693 26.3045 4.31038 26.3045 4.31038C26.3045 4.31038 24.2169 2.02943 23.5862 1.86143C19.7075 0.874555 11.3304 6.31773 5.98146 13.51C3.81742 16.4198 0.719085 21.573 2.2005 24.2236C2.38287 24.5519 3.41701 25.3957 3.97127 25.8316ZM35.4182 34.269C35.4243 34.3285 35.3856 34.3899 35.3295 34.412V34.4139C35.3295 34.4139 32.2129 35.7781 27.2623 34.3352C27.3998 35.4296 28.5307 35.9202 29.0717 36.1179C29.7513 36.3675 30.4971 36.4827 30.4971 36.4827C36.6316 37.4773 42.3668 34.172 43.6576 33.3397C43.7544 33.2773 43.8186 33.3378 43.7412 33.4482L43.6149 33.6181C42.0346 35.5391 37.786 37.7634 32.2587 37.7624C29.8481 37.7615 27.4385 36.9618 26.5542 35.732C25.1818 33.8245 26.4859 31.0396 28.7732 31.3295L29.7748 31.436C32.6337 31.7356 36.7712 31.3583 40.1823 29.8664C43.3031 28.5013 44.4819 26.9999 44.3046 25.7836C44.2567 25.4553 44.1008 25.1125 43.7667 24.789C43.2053 24.2726 42.3158 23.8694 40.8161 23.4729C40.7062 23.4437 40.6042 23.4169 40.5079 23.3916C40.1704 23.3029 39.9042 23.2329 39.622 23.1455C39.1001 22.9829 38.7924 22.8468 38.656 22.1934C38.3302 22.1633 37.9811 22.1695 37.6191 22.2099C37.3016 21.8335 37.0163 21.2244 36.8558 20.5132C36.5704 19.2481 36.6002 18.3316 37.3968 18.2126C37.865 18.1426 38.191 18.3781 38.4383 18.841C38.4356 18.7858 38.4331 18.7344 38.4309 18.6873C38.3718 17.4287 38.2109 15.7075 37.0779 14.9971C36.7824 14.8118 36.4544 14.7225 36.109 14.7052C35.8336 14.6927 35.6703 14.7288 35.5825 14.7482C35.5628 14.7526 35.5468 14.7561 35.5343 14.758C34.9226 14.8561 34.5477 15.1515 34.1056 15.4999C34.0801 15.5199 34.0544 15.5402 34.0285 15.5606C32.6153 16.6703 31.4222 16.8518 30.0947 16.798C29.6812 16.7815 29.2551 16.7421 28.8055 16.7005C28.3921 16.6623 27.9589 16.6222 27.4976 16.5964L26.9342 16.5657C24.711 16.4582 22.3269 18.2668 21.9306 20.8358C21.4878 23.7032 23.1669 25.4596 24.2588 26.6018C24.5287 26.8841 24.7627 27.1288 24.9199 27.3436C25.0208 27.4732 25.1379 27.6556 25.1379 27.8293C25.1379 28.0367 24.9953 28.2009 24.8557 28.341V28.342C22.5878 30.5394 21.8623 34.03 22.7172 36.9397C22.8241 37.3026 22.9596 37.6501 23.1196 37.9823C25.1247 42.3973 31.3458 44.4536 37.4223 42.5835C38.2363 42.333 39.0076 42.0229 39.731 41.6648C41.0942 41.036 42.2853 40.171 43.2664 39.1755C44.8782 37.5877 45.837 35.8626 46.2099 33.7362C46.3923 32.5976 46.1243 32.158 45.7595 31.9458C45.3734 31.7221 44.9108 31.7999 44.9108 31.7999C44.9108 31.7999 44.6999 30.4396 44.1029 29.2031C42.3311 30.5202 40.0509 31.4456 38.3148 31.9151C36.3117 32.4565 33.6005 32.8732 30.5756 32.7032C30.2463 32.6782 29.9388 32.6403 29.6542 32.6052C28.4883 32.4614 27.705 32.3647 27.3692 33.3925C31.2032 34.7154 35.2613 34.149 35.2613 34.149C35.3397 34.1413 35.41 34.1951 35.4182 34.269ZM37.6191 22.2099L37.6192 22.21H37.6181L37.6191 22.2099ZM24.3565 8.59773C22.2597 9.6086 19.9184 11.4086 18.0172 13.4793V13.4783C17.9499 13.5523 18.0498 13.655 18.1323 13.5983C19.7747 12.4723 22.0264 11.4259 24.976 10.7481C28.2801 9.98876 31.461 10.3075 33.4039 10.727C33.5017 10.7481 33.5628 10.5897 33.4762 10.5436C32.1925 9.86492 30.222 9.40412 28.8242 9.39452C28.7559 9.39356 28.7172 9.31868 28.7579 9.26684C28.9994 8.9606 29.3305 8.65821 29.6331 8.43933C29.7004 8.38941 29.6596 8.28669 29.574 8.29149C27.5832 8.40669 25.3132 9.30428 24.0091 10.1424C23.9449 10.1836 23.8613 10.1299 23.8776 10.0579C23.9795 9.59708 24.3005 8.98844 24.4665 8.70429C24.5063 8.63709 24.4288 8.56317 24.3565 8.59773ZM30.7761 23.2117L30.8737 23.2514C31.387 23.4605 31.7045 23.5898 31.8341 23.4637C31.9223 23.3797 31.896 23.2202 31.7596 23.014C31.4787 22.5876 30.8988 22.156 30.2855 21.9125C29.0293 21.4107 27.5312 21.5776 26.3758 22.3484C25.9941 22.6078 25.6331 22.9672 25.6846 23.1851C25.7018 23.2553 25.758 23.3084 25.8921 23.3265C26.0155 23.3395 26.2599 23.2679 26.5881 23.1719L26.5881 23.1719L26.5882 23.1719L26.5882 23.1719C27.0956 23.0235 27.8029 22.8165 28.5719 22.7726C29.466 22.7216 30.2064 22.981 30.7761 23.2128V23.2117ZM28.2129 24.3664C28.4765 24.1548 28.8857 23.9273 29.6285 23.8188L29.6296 23.8199C30.652 23.7072 31.4016 24.1495 31.5759 24.411C31.6504 24.5237 31.6206 24.5971 31.5965 24.6311C31.5168 24.7477 31.3457 24.7297 30.9875 24.6919L30.9649 24.6896C30.2898 24.6183 29.6078 24.5769 28.5739 24.9203C28.5739 24.9203 28.198 25.0595 28.0306 25.0595L27.908 25.0159L27.8507 24.8905C27.8495 24.7491 27.9882 24.5482 28.2129 24.3664ZM35.3092 26.0469C35.8135 26.2765 36.3683 26.1861 36.5494 25.8449C36.7305 25.5036 36.468 25.0411 35.9637 24.8115C35.4593 24.5818 34.9046 24.6722 34.7235 25.0135C34.5424 25.3547 34.8049 25.8172 35.3092 26.0469ZM37.7907 24.3523C37.7998 23.8303 38.1403 23.4135 38.5495 23.4199C38.9587 23.4273 39.283 23.8547 39.2739 24.3757C39.2647 24.8966 38.9243 25.3134 38.5151 25.307C38.1059 25.3006 37.7815 24.8732 37.7907 24.3523Z" fill="black"/>
</svg>
