<svg width="52" height="48" viewBox="0 0 52 48" fill="none" xmlns="http://www.w3.org/2000/svg">
<g clip-path="url(#clip0)">
<path d="M51.4286 25.2C51.4314 24.7965 51.2236 24.421 50.8808 24.21H50.8748L50.8533 24.198L33.0327 13.614C32.9557 13.5619 32.8759 13.5142 32.7935 13.4712C32.1054 13.1151 31.2881 13.1151 30.6 13.4712C30.5176 13.5142 30.4377 13.5619 30.3608 13.614L12.5402 24.198L12.5187 24.21C11.9741 24.5498 11.8071 25.2683 12.1458 25.8148C12.2456 25.9758 12.383 26.11 12.5462 26.2056L30.3668 36.7896C30.444 36.8413 30.5239 36.889 30.606 36.9324C31.2941 37.2886 32.1114 37.2886 32.7995 36.9324C32.8817 36.889 32.9615 36.8413 33.0387 36.7896L50.8593 26.2056C51.2153 25.9974 51.4327 25.6135 51.4286 25.2Z" fill="#0A2767"/>
<path d="M14.6175 18.1332H26.3121V28.8888H14.6175V18.1332ZM49.0364 7.19999V2.27999C49.0645 1.04987 48.094 0.0294763 46.868 0H16.5204C15.2944 0.0294763 14.3239 1.04987 14.352 2.27999V7.19999L32.2922 12L49.0364 7.19999Z" fill="#0364B8"/>
<path d="M14.3522 7.2002H26.3123V18.0002H14.3522V7.2002Z" fill="#0078D4"/>
<path d="M38.2725 7.2002H26.3123V18.0002L38.2725 28.8002H49.0366V18.0002L38.2725 7.2002Z" fill="#28A8EA"/>
<path d="M26.3123 18H38.2724V28.8H26.3123V18Z" fill="#0078D4"/>
<path d="M26.3123 28.7998H38.2724V39.5998H26.3123V28.7998Z" fill="#0364B8"/>
<path d="M14.6176 28.8887H26.3122V38.6663H14.6176V28.8887Z" fill="#14447D"/>
<path d="M38.2725 28.7998H49.0366V39.5998H38.2725V28.7998Z" fill="#0078D4"/>
<path d="M50.8808 26.1398L50.8581 26.1518L33.0375 36.2078C32.9597 36.2558 32.8808 36.3014 32.7983 36.3422C32.4956 36.4868 32.1668 36.5684 31.8319 36.5822L30.8583 36.011C30.7761 35.9696 30.6962 35.9235 30.6191 35.873L12.5593 25.5314H12.551L11.9601 25.2002V45.557C11.9694 46.9152 13.0739 48.0088 14.4275 48.0002H48.9994C49.0198 48.0002 49.0377 47.9906 49.0592 47.9906C49.3452 47.9722 49.627 47.9132 49.8964 47.8154C50.0129 47.7659 50.1252 47.7073 50.2325 47.6402C50.3127 47.5946 50.4502 47.495 50.4502 47.495C51.0629 47.0401 51.4255 46.3217 51.4285 45.557V25.2002C51.4281 25.5896 51.2188 25.9486 50.8808 26.1398Z" fill="url(#paint0_linear)"/>
<path opacity="0.5" d="M50.4717 25.1199V26.3679L31.8378 39.2403L12.5461 25.5399C12.5461 25.5332 12.5407 25.5279 12.5341 25.5279L10.764 24.4599V23.5599L11.4936 23.5479L13.0365 24.4359L13.0723 24.4479L13.2039 24.5319C13.2039 24.5319 31.3354 34.9119 31.3833 34.9358L32.077 35.3438C32.1367 35.3198 32.1965 35.2958 32.2683 35.2718C32.3042 35.2478 50.2683 25.1078 50.2683 25.1078L50.4717 25.1199Z" fill="#0A2767"/>
<path d="M50.8808 26.1398L50.8581 26.153L33.0375 36.209C32.9598 36.257 32.8808 36.3026 32.7983 36.3434C32.1062 36.6826 31.2969 36.6826 30.6048 36.3434C30.5228 36.3026 30.443 36.2578 30.3656 36.209L12.545 26.153L12.5235 26.1398C12.1795 25.9526 11.9638 25.5929 11.9602 25.2002V45.557C11.9688 46.9149 13.0729 48.0088 14.4263 48.0002C14.4263 48.0002 14.4263 48.0002 14.4264 48.0002H48.9624C50.3158 48.0088 51.42 46.915 51.4286 45.5571C51.4286 45.5571 51.4286 45.557 51.4286 45.557V25.2002C51.4282 25.5896 51.2189 25.9486 50.8808 26.1398Z" fill="#1490DF"/>
<path opacity="0.1" d="M33.2969 36.0596L33.0302 36.2096C32.9529 36.2589 32.873 36.3042 32.7909 36.3452C32.4971 36.4899 32.1776 36.5747 31.8509 36.5948L38.6311 44.6396L50.4585 47.4992C50.7825 47.2535 51.0403 46.9305 51.2084 46.5596L33.2969 36.0596Z" fill="black"/>
<path opacity="0.05" d="M34.5048 35.3779L33.0302 36.2095C32.9529 36.2589 32.873 36.3042 32.7909 36.3451C32.4971 36.4898 32.1776 36.5747 31.8509 36.5947L35.0275 45.3823L50.462 47.4955C51.0701 47.0375 51.428 46.3192 51.4284 45.5563V45.2935L34.5048 35.3779Z" fill="black"/>
<path d="M14.4599 48.0002H48.9588C49.4897 48.0029 50.0074 47.8346 50.4359 47.5202L30.8572 36.0134C30.7749 35.972 30.695 35.9259 30.618 35.8754L12.5582 25.5338H12.5498L11.9602 25.2002V45.4874C11.9589 46.8738 13.078 47.9988 14.4599 48.0002C14.4598 48.0002 14.4598 48.0002 14.4599 48.0002Z" fill="#28A8EA"/>
<path opacity="0.1" d="M28.7043 11.7992V37.3952C28.7022 38.2926 28.1583 39.0993 27.3289 39.4352C27.072 39.546 26.7953 39.6032 26.5156 39.6032H11.9601V10.7996H14.3522V9.59961H26.5156C27.7239 9.6042 28.7017 10.5869 28.7043 11.7992Z" fill="black"/>
<path opacity="0.2" d="M27.5083 12.9995V38.5955C27.5113 38.8853 27.4501 39.1723 27.3289 39.4354C26.9968 40.2569 26.2031 40.7958 25.3196 40.7998H11.9601V10.7999H25.3196C25.6666 10.7964 26.0086 10.8833 26.3123 11.0519C27.0455 11.4225 27.508 12.1758 27.5083 12.9995Z" fill="black"/>
<path opacity="0.2" d="M27.5083 12.9995V36.1955C27.5025 37.4072 26.5273 38.3894 25.3196 38.3999H11.9601V10.7999H25.3196C25.6666 10.7964 26.0086 10.8833 26.3123 11.0519C27.0455 11.4225 27.508 12.1758 27.5083 12.9995Z" fill="black"/>
<path opacity="0.2" d="M26.3123 12.9994V36.1954C26.311 37.409 25.3332 38.3938 24.1236 38.3998H11.9601V10.7998H24.1236C25.333 10.8005 26.3129 11.7847 26.3123 12.9982C26.3123 12.9986 26.3123 12.999 26.3123 12.9994Z" fill="black"/>
<path d="M2.19228 10.7998H24.12C25.3308 10.7998 26.3123 11.7846 26.3123 12.9994V35.0002C26.3123 36.215 25.3308 37.1998 24.12 37.1998H2.19228C0.981507 37.1998 0 36.215 0 35.0002V12.9994C0 11.7846 0.981535 10.7998 2.19228 10.7998Z" fill="url(#paint1_linear)"/>
<path d="M6.85197 20.0256C7.39229 18.8706 8.26443 17.904 9.35643 17.25C10.5657 16.5554 11.9427 16.2091 13.3356 16.2492C14.6266 16.2211 15.9004 16.5495 17.0181 17.1984C18.0689 17.8272 18.9152 18.7484 19.4544 19.8504C20.0415 21.0647 20.3341 22.401 20.3083 23.7504C20.3368 25.1606 20.0357 26.5579 19.4293 27.8304C18.8773 28.9718 18.0041 29.9259 16.9176 30.5748C15.7569 31.2436 14.4357 31.5806 13.0976 31.5492C11.779 31.5811 10.477 31.2491 9.33371 30.5892C8.27379 29.9596 7.41684 29.0373 6.86514 27.9324C6.27454 26.7357 5.97845 25.4144 6.00162 24.0792C5.97702 22.681 6.26771 21.2953 6.85197 20.0256ZM9.52147 26.5416C9.80955 27.2718 10.2981 27.9051 10.9304 28.368C11.5744 28.8196 12.3456 29.0526 13.131 29.0328C13.9675 29.066 14.792 28.8251 15.48 28.3464C16.1043 27.885 16.58 27.2499 16.8482 26.52C17.1481 25.7048 17.2961 24.8413 17.2848 23.9724C17.294 23.0953 17.1549 22.2229 16.8733 21.3924C16.6246 20.6426 16.1643 19.9815 15.5482 19.4892C14.8775 18.9879 14.0551 18.7336 13.2195 18.7692C12.417 18.7484 11.6286 18.9832 10.9674 19.44C10.3245 19.9049 9.82665 20.5438 9.53222 21.282C8.87908 22.9742 8.87568 24.8495 9.52265 26.544L9.52147 26.5416Z" fill="white"/>
<path d="M38.2725 7.2002H49.0366V18.0002H38.2725V7.2002Z" fill="#50D9FF"/>
</g>
<defs>
<linearGradient id="paint0_linear" x1="31.6944" y1="25.2002" x2="31.6944" y2="48.0002" gradientUnits="userSpaceOnUse">
<stop stop-color="#35B8F1"/>
<stop offset="1" stop-color="#28A8EA"/>
</linearGradient>
<linearGradient id="paint1_linear" x1="4.57097" y1="9.08109" x2="21.8271" y2="38.8688" gradientUnits="userSpaceOnUse">
<stop stop-color="#1784D9"/>
<stop offset="0.5" stop-color="#107AD5"/>
<stop offset="1" stop-color="#0A63C9"/>
</linearGradient>
<clipPath id="clip0">
<rect width="51.4286" height="48" fill="white"/>
</clipPath>
</defs>
</svg>
