<svg width="48" height="48" viewBox="0 0 48 48" fill="none" xmlns="http://www.w3.org/2000/svg">
<path d="M24.0001 48C37.255 48 48.0001 37.2548 48.0001 24C48 10.7452 37.2548 0 24 0C10.7452 0 2.87614e-05 10.7452 6.42403e-05 24C9.97192e-05 37.2548 10.7453 48 24.0001 48Z" fill="#2CA01C"/>
<path d="M6.66648 23.9999C6.6665 29.1732 10.8264 33.3333 15.9997 33.3333H17.3331L17.3331 29.8666H15.9997C12.7465 29.8666 10.1331 27.2532 10.1331 23.9999C10.1331 20.7466 12.7464 18.1333 15.9997 18.1333H19.1997C19.1997 18.1333 19.1997 35.9466 19.1997 36.2666C19.1997 38.1866 20.7465 39.7332 22.6664 39.7332L22.6663 14.6667C22.6663 14.6667 19.093 14.6667 15.9997 14.6667C10.8264 14.6667 6.66647 18.8799 6.66648 23.9999ZM31.9997 14.6667H30.6663L30.6663 18.1333H31.9997C35.253 18.1333 37.8663 20.7467 37.8663 23.9999C37.8663 27.2532 35.253 29.8667 31.9997 29.8667H28.7998C28.7998 29.8667 28.7997 12.0534 28.7997 11.7333C28.7997 9.81336 27.253 8.2666 25.3331 8.2666L25.3331 33.3333C25.3331 33.3333 28.9064 33.3333 31.9997 33.3333C37.1731 33.3333 41.3331 29.1732 41.3331 23.9999C41.3331 18.8799 37.173 14.6667 31.9997 14.6667Z" fill="white"/>
</svg>
