<svg width="48" height="48" viewBox="0 0 48 48" fill="none" xmlns="http://www.w3.org/2000/svg"><path d="M16.877 4 9.925 8 3 4 9.925 0 16.877 4ZM23.829 8 16.877 12 9.926 8 16.877 4 23.829 8ZM30.782 12 23.831 16 16.879 12 23.831 8 30.782 12Z" fill="black"/><path d="M37.7314 16L30.7797 20L23.8281 16L30.7797 12L37.7314 16Z" fill="black"/><path d="M44.656 20 37.731 24 30.779 20 37.731 16 44.656 20ZM30.78 28V36L23.828 40V32L30.78 28Z" fill="black"/><path d="M44.655 20V28L37.731 32V24L44.655 20ZM16.877 36V44L9.926 48V40L16.877 36ZM16.877 20 9.925 24 3 20 9.925 16 16.877 20ZM23.829 24 16.877 28 9.926 24 16.877 20 23.829 24ZM30.782 28 23.831 32 16.879 28 23.831 24 30.782 28ZM9.925 0V8L3 12V4L9.925 0Z" fill="black"/><path d="M9.925 16V24L3 28V20L9.925 16ZM16.877 36 9.925 40 3 36 9.925 32 16.877 36Z" fill="black"/><path d="M9.92489 32V40L3 44V36L9.92489 32Z" fill="black"/></svg>
