<svg width="48" height="48" viewBox="0 0 48 48" fill="none" xmlns="http://www.w3.org/2000/svg">
<path d="M24.0005 48C37.255 48 48 37.2541 48 24C48 10.7437 37.256 0 24.0005 0C10.745 0 0 10.7437 0 24C0 37.2541 10.745 48 24.0005 48Z" fill="white"/>
<path d="M11.6938 23.9935L15.7813 19.8869C15.9168 19.7503 15.9925 19.5669 15.9925 19.3727C15.9925 18.9674 15.664 18.6389 15.2597 18.6389C15.0624 18.6389 14.8778 18.7157 14.7392 18.8575L10.6538 22.9461L6.5525 18.8501C6.41384 18.7135 6.23037 18.6389 6.03517 18.6389C5.62983 18.6389 5.30237 18.9674 5.30237 19.3717C5.30237 19.569 5.3813 19.7557 5.5221 19.8943L9.60957 23.9871L5.52423 28.0831C5.3813 28.2261 5.30237 28.4117 5.30237 28.609C5.30237 29.0143 5.6309 29.3429 6.03517 29.3429C6.23037 29.3429 6.41384 29.2682 6.5525 29.1295L10.6485 25.0314L14.7285 29.1135C14.8736 29.2629 15.0592 29.3429 15.2597 29.3429C15.6629 29.3429 15.9914 29.0143 15.9914 28.609C15.9914 28.4138 15.9168 28.2303 15.7781 28.0917L11.6928 23.9893L11.6938 23.9935ZM35.9936 23.9925C35.9936 24.7285 36.5909 25.3258 37.3269 25.3258C38.0586 25.3258 38.656 24.7285 38.656 23.9925C38.656 23.2565 38.0586 22.6591 37.3258 22.6591C36.593 22.6591 35.9968 23.2565 35.9968 23.9925H35.9936ZM33.4709 23.9925C33.4709 21.8645 35.1989 20.1311 37.3258 20.1311C39.4485 20.1311 41.1797 21.8645 41.1797 23.9925C41.1797 26.1205 39.4496 27.8538 37.3258 27.8538C35.2 27.8538 33.4709 26.1226 33.4709 23.9925ZM31.9541 23.9925C31.9541 26.9578 34.3648 29.3727 37.3258 29.3727C40.2869 29.3727 42.6976 26.9599 42.6976 23.9935C42.6976 21.0282 40.2869 18.6133 37.3258 18.6133C34.3637 18.6133 31.9541 21.0271 31.9541 23.9935V23.9925ZM31.5733 18.705H31.3493C30.672 18.705 30.0192 18.9183 29.4741 19.3397C29.3994 19.0133 29.105 18.7637 28.7552 18.7637C28.353 18.7637 28.0298 19.089 28.0298 19.4933L28.032 28.5546C28.032 28.9567 28.3626 29.2842 28.7626 29.2842C29.1658 29.2842 29.4944 28.9567 29.4954 28.5525V22.9802C29.4954 21.1242 29.6661 20.3733 31.2533 20.1749C31.4026 20.1567 31.5605 20.1599 31.5626 20.1599C31.9957 20.1439 32.305 19.8442 32.305 19.4399C32.305 19.0346 31.9744 18.7061 31.569 18.7061L31.5733 18.705ZM17.5082 23.1082C17.5082 23.0869 17.5104 23.0655 17.5114 23.0463C17.936 21.361 19.4592 20.1162 21.2714 20.1162C23.1061 20.1162 24.6421 21.3898 25.0474 23.105H17.5072L17.5082 23.1082ZM26.5461 22.9695C26.2304 21.473 25.4122 20.2431 24.1674 19.4538C22.3456 18.2954 19.9413 18.3594 18.1834 19.6138C16.7477 20.6346 15.9189 22.3071 15.9189 24.0298C15.9189 24.4618 15.9722 24.8981 16.0789 25.3279C16.6208 27.4613 18.4533 29.0783 20.6378 29.3461C21.2864 29.425 21.9178 29.3887 22.5685 29.2181C23.1317 29.0794 23.6746 28.8533 24.1749 28.5311C24.6944 28.1973 25.1285 27.7557 25.5509 27.2277C25.5573 27.217 25.5658 27.2095 25.5744 27.1989C25.8666 26.8362 25.8122 26.3178 25.4922 26.0725C25.2213 25.8645 24.7669 25.7802 24.4106 26.2389C24.3338 26.3498 24.2474 26.4629 24.1546 26.5749C23.8698 26.8895 23.5168 27.1935 23.0944 27.4303C22.5546 27.7183 21.9424 27.8815 21.2917 27.8858C19.1605 27.8613 18.0213 26.3711 17.6149 25.3087C17.5445 25.1093 17.4901 24.9034 17.4517 24.6901L17.441 24.5781H25.089C26.1365 24.5546 26.6997 23.8133 26.544 22.9674L26.5461 22.9695Z" fill="#1FC0E7"/>
</svg>
