<svg width="64" height="22" viewBox="0 0 64 22" fill="none" xmlns="http://www.w3.org/2000/svg"><path d="M4.406 14.462 4.395 14.427 11.32 8.088V5.033H.21V8.088H6.846L6.857 8.117 0 14.462V17.517H11.432V14.462H4.406ZM18.249 4.742C16.968 4.742 15.923 4.936 15.116 5.322 14.364 5.659 13.731 6.214 13.298 6.915 12.884 7.621 12.624 8.406 12.535 9.22L15.906 9.694C16.028 8.975 16.272 8.466 16.638 8.166 17.054 7.853 17.566 7.694 18.086 7.718 18.771 7.718 19.267 7.901 19.575 8.267 19.881 8.633 20.036 9.139 20.036 9.807V10.14H16.795C15.145 10.14 13.96 10.506 13.239 11.237 12.519 11.969 12.159 12.935 12.16 14.135 12.16 15.364 12.52 16.278 13.239 16.878 13.959 17.478 14.864 17.776 15.954 17.773 17.306 17.773 18.346 17.308 19.074 16.377 19.504 15.805 19.811 15.151 19.976 14.455H20.098L20.563 17.509H23.618V9.774C23.618 8.175 23.196 6.937 22.354 6.059 21.511 5.181 20.143 4.742 18.249 4.742ZM19.317 14.277C18.833 14.682 18.198 14.883 17.408 14.883 16.757 14.883 16.304 14.769 16.051 14.541 15.927 14.433 15.829 14.299 15.763 14.149 15.697 13.999 15.664 13.836 15.668 13.672 15.661 13.517 15.686 13.363 15.74 13.218 15.794 13.073 15.878 12.941 15.985 12.829 16.101 12.72 16.237 12.636 16.387 12.582 16.536 12.527 16.695 12.504 16.854 12.512H20.042V12.723C20.048 13.02 19.986 13.315 19.861 13.584 19.735 13.854 19.549 14.091 19.317 14.277ZM42.085 5.033H38.477V17.519H42.085V5.033ZM63.394 5.033C62.375 5.033 61.571 5.393 60.984 6.112 60.562 6.629 60.241 7.393 60.021 8.404H59.915L59.444 5.033H56.361V17.517H59.97V11.115C59.97 10.308 60.159 9.689 60.537 9.258 60.915 8.828 61.613 8.613 62.63 8.613H64V5.033H63.394ZM52.784 5.441C51.941 4.94 50.879 4.69 49.596 4.691 47.577 4.691 45.996 5.266 44.855 6.416 43.713 7.566 43.143 9.151 43.143 11.172 43.114 12.393 43.38 13.604 43.92 14.7 44.414 15.677 45.184 16.488 46.133 17.032 47.089 17.585 48.226 17.861 49.545 17.862 50.685 17.862 51.637 17.687 52.402 17.336 53.121 17.02 53.746 16.526 54.22 15.9 54.671 15.285 55.005 14.594 55.207 13.859L52.098 12.988C51.967 13.466 51.715 13.902 51.366 14.254 51.015 14.605 50.427 14.781 49.601 14.781 48.62 14.781 47.888 14.499 47.406 13.937 47.057 13.531 46.838 12.951 46.741 12.2H55.255C55.29 11.848 55.308 11.554 55.308 11.316V10.539C55.329 9.494 55.113 8.459 54.677 7.51 54.269 6.645 53.609 5.924 52.784 5.441ZM49.492 7.667C50.955 7.667 51.785 8.387 51.981 9.827H46.805C46.887 9.347 47.086 8.894 47.385 8.509 47.859 7.946 48.561 7.666 49.492 7.667ZM40.321.001C40.049-.008 39.779.037 39.525.135 39.272.232 39.04.38 38.845.568 38.652.759 38.501.987 38.401 1.239 38.301 1.491 38.255 1.761 38.265 2.031 38.255 2.304 38.302 2.576 38.402 2.829 38.502 3.083 38.653 3.313 38.846 3.506 39.039 3.699 39.269 3.85 39.523 3.95 39.777 4.049 40.048 4.095 40.321 4.085 40.592 4.096 40.862 4.049 41.114 3.95 41.365 3.85 41.594 3.699 41.784 3.506 41.973 3.311 42.12 3.08 42.217 2.826 42.315 2.573 42.359 2.303 42.349 2.031 42.362 1.762 42.318 1.493 42.22 1.241 42.123.989 41.974.761 41.784.57 41.593.379 41.365.23 41.113.132 40.861.035 40.592-.009 40.323.003L40.321.001ZM32.868 4.691C31.639 4.691 30.652 5.077 29.905 5.849 29.353 6.421 28.947 7.274 28.689 8.41H28.574L28.102 5.039H25.02V21.106H28.628V14.488H28.76C28.87 14.929 29.025 15.358 29.221 15.768 29.526 16.436 30.027 16.996 30.657 17.374 31.31 17.731 32.046 17.908 32.79 17.888 34.301 17.888 35.451 17.3 36.241 16.123 37.031 14.946 37.426 13.304 37.426 11.197 37.426 9.162 37.044 7.569 36.28 6.418 35.515 5.267 34.378 4.691 32.868 4.691ZM33.234 13.738C32.813 14.348 32.155 14.652 31.259 14.652 30.889 14.67 30.521 14.598 30.184 14.445 29.848 14.291 29.553 14.059 29.324 13.769 28.856 13.183 28.624 12.38 28.625 11.36V11.122C28.625 10.087 28.858 9.294 29.324 8.744 29.789 8.195 30.434 7.923 31.259 7.929 32.171 7.929 32.834 8.218 33.247 8.797 33.66 9.377 33.867 10.185 33.867 11.221 33.87 12.293 33.66 13.132 33.238 13.738H33.234Z" fill="#FFFDF9"/></svg>
